<svg xmlns="http://www.w3.org/2000/svg" viewBox="0 0 100 100">
  <style>
    @media (prefers-color-scheme: dark) {
      svg { fill: white; }
    }
  </style>
  <path d="m 36.35339,56.650222 h -7.391715 c 0.195807,1.370649 0.29371,2.937105 0.29371,4.895175 0,2.153876 0,6.804293 0,9.300832 0,7.636473 -0.636372,11.307854 -4.014043,14.979235 -2.937105,3.181863 -6.902196,5.04203 -11.748419,6.167921 l 5.090982,5.384692 c 3.573477,-1.12589 8.664459,-3.524526 11.895274,-7.049052 3.622429,-4.014044 5.678403,-8.566556 5.678403,-19.091182 0,-2.398635 0,-7.146955 0,-9.692446 0,-1.95807 0.09791,-3.524526 0.195808,-4.895175 z M 13.639778,57.041836 H 6.5907263 c 0.1468553,1.12589 0.195807,2.839202 0.195807,3.769285 0,2.153876 0,13.706489 0,16.496739 0,1.468552 -0.195807,3.37767 -0.2447587,4.307754 h 7.0980034 c -0.09791,-1.125891 -0.146855,-3.035008 -0.146855,-4.258803 0,-2.741298 0,-14.391814 0,-16.54569 0,-1.566457 0.04895,-2.643395 0.146855,-3.769285 z m 70.53947,-1.468553 -3.867188,1.615408 c 1.321696,1.860166 2.790249,4.797271 3.818236,6.804294 l 3.91614,-1.713312 c -0.930083,-1.811215 -2.643394,-4.895174 -3.867188,-6.70639 z m 5.776305,-2.202828 -3.867187,1.615408 c 1.321697,1.811214 2.937105,4.699367 3.91614,6.706389 l 3.91614,-1.66436 C 93.039514,58.314581 91.2283,55.230622 89.955553,53.370455 Z M 55.39562,79.412785 c -1.66436,4.307754 -4.552513,9.594542 -7.636474,13.608586 l 6.853245,2.888154 c 2.594443,-3.671381 5.482596,-9.251881 7.244859,-14.000201 1.713311,-4.552513 3.475574,-11.307853 4.160899,-14.734476 0.195807,-1.076939 0.734276,-3.475575 1.174842,-4.895175 l -7.146955,-1.468552 c -0.587422,6.216871 -2.447588,13.119068 -4.650416,18.601664 z m 24.182163,-1.027986 c 1.95807,5.286788 3.720333,11.454709 5.090982,17.279967 l 7.244859,-2.349684 C 90.542975,88.468858 87.948532,80.636579 86.235221,76.230922 84.375055,71.482601 80.997384,63.944032 78.990363,60.174748 l -6.510583,2.104925 c 2.055973,3.720333 5.237836,10.965192 7.098003,16.105126 z M 36.35339,5.0694871 h -7.391715 c 0.195807,1.370649 0.29371,2.9371055 0.29371,4.8951754 0,2.1538755 0,6.8042915 0,9.3008315 0,7.636473 -0.636372,11.307854 -4.014043,14.979235 -2.937105,3.181863 -6.902196,5.04203 -11.748419,6.167921 l 5.090982,5.384692 c 3.573477,-1.12589 8.664459,-3.524526 11.895274,-7.049052 3.622429,-4.014044 5.678403,-8.566555 5.678403,-19.091182 0,-2.398635 0,-7.146955 0,-9.6924455 0,-1.9580699 0.09791,-3.5245264 0.195808,-4.8951754 z M 13.639778,5.4611011 H 6.5907263 c 0.1468553,1.1258902 0.195807,2.8392017 0.195807,3.7692852 0,2.1538757 0,13.7064887 0,16.4967387 0,1.468552 -0.195807,3.37767 -0.2447587,4.307754 h 7.0980034 c -0.09791,-1.125891 -0.146855,-3.035009 -0.146855,-4.258803 0,-2.741298 0,-14.391814 0,-16.5456897 0,-1.5664565 0.04895,-2.643395 0.146855,-3.7692852 z M 73.850428,4.2862592 66.752425,2.0834304 C 66.311859,3.7477899 65.283872,5.9995703 64.500645,7.1744123 62.053057,11.433215 57.500544,18.139604 48.933988,23.475344 l 5.28679,4.062996 c 4.944126,-3.426622 9.496639,-8.125991 12.923261,-12.678503 h 14.0002 c -0.734276,3.035008 -2.839201,7.293811 -5.384692,10.818336 -3.08396,-2.055973 -6.16792,-4.062995 -8.762363,-5.531548 l -4.356706,4.45461 c 2.49654,1.566456 5.727355,3.769284 8.909219,6.118968 -4.062996,4.062995 -9.49664,8.028087 -17.965293,10.622529 l 5.678404,4.944128 c 7.636472,-2.888154 13.216972,-7.049052 17.524725,-11.601565 2.007023,1.615408 3.818237,3.132912 5.139935,4.356706 l 4.650416,-5.531548 c -1.419601,-1.174843 -3.32872,-2.594442 -5.433645,-4.111947 3.475575,-4.895175 5.923162,-10.133012 7.244859,-14.098104 0.440566,-1.223794 1.076938,-2.545491 1.615408,-3.475574 L 85.011427,8.7408688 c -1.076938,0.3426618 -2.741298,0.538469 -4.258801,0.538469 H 70.81542 c 0.587421,-1.0769392 1.811215,-3.2797675 3.035008,-4.9930786 z" />
</svg>
