<svg xmlns="http://www.w3.org/2000/svg" width="31mm" height="33mm" viewBox="0 0 31 33">
  <style>
    @media (prefers-color-scheme: dark) {
      svg { fill: white; }
    }
  </style>
  <path d="M 2.3743816,2.4212214 H 28.516592 V 30.553403 H 2.3743816 Z M 1.1319176,1.1737112 V 31.800912 H 29.764103 V 1.1737112 Z M 4.4420855,24.712038 5.8692752,25.032769 4.42605,29.346395 2.9988613,29.025684 Z m 4.4178746,0.04005 -0.4810741,-1.403162 h 0.8498994 l 0.4810751,1.403162 z m 1.1786339,0 -0.4890929,-1.403162 H 10.3994 l 0.489093,1.403162 z m -0.9541324,0.224459 1.4352064,4.369771 -1.4271881,0.400913 -1.763942,-5.35597 1.0744009,-0.304693 0.2966619,0.889979 z m 5.2264594,0.801797 1.242778,0.112209 q -0.320718,3.704262 -4.145266,4.032981 l -0.160355,-1.20266 q 2.926543,-0.136317 3.062847,-2.942591 z m -3.247257,2.212938 q -0.160355,-1.002219 -0.681525,-1.579516 l 1.018276,-0.360817 q 0.601344,0.481106 0.817827,1.723873 z m 1.443224,-0.272595 q -0.160356,-1.002229 -0.681525,-1.579526 l 1.018278,-0.360817 q 0.601345,0.481106 0.817829,1.723872 z m 10.261157,-3.84865 q 0,5.973355 -5.93326,6.053518 l -0.240545,-1.21068 q 4.67445,-0.160335 4.706521,-3.576003 h -5.70876 v -1.266835 z m 5.128609,1.932354 q 0,2.549698 -1.699798,2.653928 l -0.16837,-1.066372 q 0.601343,-0.02326 0.625396,-0.481107 h -3.664189 v -1.106449 z m -3.255276,1.338988 h 1.162599 q 0,2.565736 -1.868174,2.830342 l -0.280628,-1.042345 q 0.986203,-0.144266 0.986203,-1.787997 z M 4.2977617,20.555228 v -3.359513 h 1.258813 v 3.359513 z m 5.147509,-0.697577 q -0.072164,3.263303 -3.559959,3.463754 L 5.6447666,22.110696 q 2.3893398,-0.120279 2.485557,-2.253045 v -2.661936 h 1.314939 z m 7.9377403,-1.707814 1.363045,0.160336 q -0.481074,4.49005 -7.055769,4.971095 l -0.240544,-1.290861 q 5.612544,-0.320701 5.933263,-3.84058 z m -5.901191,0.312692 0.320718,-1.258805 q 2.148803,-0.0081 3.175097,0.881959 l -0.849901,1.138566 q -0.849899,-0.76172 -2.645914,-0.76172 z m 13.798844,-0.352758 -0.481075,-1.403162 h 0.849899 l 0.481074,1.403162 z m 1.178633,0 -0.489093,-1.403162 h 0.849901 l 0.489093,1.403162 z m 0.449005,0.224449 q -0.489093,4.874915 -5.885154,4.947048 l -0.240543,-1.210679 q 4.514089,-0.160335 4.706518,-3.495821 h -3.215184 q -0.561257,1.330979 -1.507371,1.948352 l -1.218722,-0.609344 q 1.403134,-1.010278 1.804032,-3.127004 l 1.41917,0.160335 q -0.0401,0.184372 -0.08019,0.360807 h 2.08466 l 0.192419,0.585306 0.152342,0.44098 z M 8.8198718,12.82745 Q 9.1004961,12.218086 9.1486067,11.352135 H 5.9334193 Q 5.3721656,12.763316 4.42605,13.38068 L 3.2073262,12.771326 Q 4.6104611,11.761048 5.0113595,9.6443415 l 1.4191704,0.160325 -0.080193,0.2806245 h 4.2655351 q 0,5.973364 -5.9332608,6.053527 l -0.2405441,-1.21068 q 2.277088,-0.08029 3.4557265,-0.970171 L 5.5725961,13.236323 6.1819564,12.073749 Z m 5.5965082,0.569268 q -1.234759,0.296683 -2.726093,0.33675 l -0.240544,-1.290893 q 3.608065,-0.08009 6.414337,-2.4534549 l 1.042331,1.0423039 q -1.338993,1.170634 -3.062846,1.924305 v 3.16708 h -1.427189 z m 8.146207,-3.3995887 1.411155,0.3928637 -2.669968,4.297618 3.952836,-0.416932 -0.440985,-1.595565 1.298904,-0.256536 0.962149,3.463764 -1.298904,0.256526 -0.176387,-0.633402 -5.82101,0.609365 -0.128287,-1.258836 z M 4.2977617,6.3953283 V 3.0358191 h 1.258813 V 6.3953283 Z M 9.4452707,5.6977518 Q 9.3731072,8.9610539 5.8853117,9.1615259 L 5.6447666,7.9508164 Q 8.0341064,7.8305373 8.1303236,5.6977518 V 3.0358191 h 1.314939 z M 18.746056,3.0678841 q 0,3.7283578 -2.485554,3.8886929 L 16.019959,5.7458776 q 1.226742,-0.1603149 1.258813,-1.411141 h -5.70876 V 3.0678841 Z M 14.34422,5.0322929 h 1.33899 q 0.008,3.7523772 -2.726094,4.1372421 L 12.540186,7.9989119 Q 14.34422,7.7904813 14.34422,5.0322929 Z m 8.523048,3.5920118 v -5.596513 h 1.347011 V 7.020711 q 0.92206,-0.096171 1.45926,-1.8841978 l 1.363048,0.3207309 Q 26.739924,7.0287404 25.585344,7.8145088 24.43878,8.6002671 22.867268,8.6243047 Z m -1.876193,-5.091375 1.363047,0.080274 q -0.05613,4.2013964 -1.491334,5.5163364 L 19.58794,8.4159247 q 1.298902,-1.058333 1.403135,-4.8828929 z" />
</svg>
